<?xml version="1.0" encoding="utf-8"?>
<!-- Generator: Adobe Illustrator 24.3.0, SVG Export Plug-In . SVG Version: 6.00 Build 0)  -->
<svg version="1.1" id="Слой_1" xmlns="http://www.w3.org/2000/svg" xmlns:xlink="http://www.w3.org/1999/xlink" x="0px" y="0px"
	 viewBox="0 0 868 164" style="enable-background:new 0 0 868 164;" xml:space="preserve">
<style type="text/css">
	.st0{fill:#1D1D1B;}
	.st1{fill-rule:evenodd;clip-rule:evenodd;fill:#1D1D1B;}
	.st2{fill:#00DF32;}
</style>
<g>
	<path class="st0" d="M683.5,3.7c-7.3,0-13,4.9-13,12.2c0,8.5,6.1,13,13,13c6.1,0,12.2-4.9,12.2-13C695.3,8.5,689.2,3.7,683.5,3.7z
		 M682.7,20.8c-2.4,0-4.5-2-4.5-4.5c0-2.4,2-4.5,4.5-4.5c2.4,0,4.5,2,4.5,4.5C687.2,18.7,685.1,20.8,682.7,20.8z"/>
	<path class="st0" d="M863.5,156.3c-0.8,0.8-1.6,1.2-2.4,1.6c-0.8,0.4-2,0.4-2.8,0.4c-4.5,0-7.3-3.7-7.3-7.7c0-4.1,2.8-7.7,7.3-7.7
		c2,0,4.1,0.8,5.3,2l4.5-3.3c-1.2-1.2-2.8-2.4-4.5-3.3c-1.6-0.8-3.6-1.2-5.3-1.2c-6.9,0-13.4,5.3-13.4,13c0,7.7,6.1,13,13.4,13
		c4.5,0,8.1-1.6,10.1-4.5L863.5,156.3z M797,151.4h3.6c4.5,0,5.7-1.2,5.7-4.1c0-2-1.2-4.1-5.3-4.1H797V151.4z M805.6,163.6l-4.5-7.3
		H797v7.3h-5.7v-25.2h8.9c1.2,0,3.2,0,4.5,0.4c5.3,1.2,7.7,4.1,7.7,9c0,2.4-0.8,4.1-2,5.7c-0.8,0.8-2,1.6-3.6,2.4l5.7,8.1h-6.9
		V163.6z M835.6,151c0-4.1-2.8-7.7-7.3-7.7c-4.5,0-7.3,3.7-7.3,7.7c0,4.1,2.8,7.7,7.3,7.7C832.7,158.7,835.6,155,835.6,151z
		 M841.6,151c0,8.1-6.1,13-13.4,13c-7.3,0-13.4-5.3-13.4-13c0-7.7,6.1-13,13.4-13C835.6,137.5,841.6,142.8,841.6,151z M788.1,159.5
		c-2.4,2.8-6.1,4.5-10.1,4.5c-7.3,0-13.4-5.3-13.4-13c0-7.7,6.1-13,13.4-13c2,0,3.6,0.4,5.3,1.2c1.6,0.8,3.2,2,4.5,3.3l-4.5,3.3
		c-1.2-1.2-2.8-2-5.3-2c-4.5,0-7.3,3.7-7.3,7.7c0,4.1,2.8,7.7,7.3,7.7c1.2,0,2-0.4,2.8-0.4c0.8-0.4,2-1.2,2.4-1.6L788.1,159.5z"/>
	<path class="st0" d="M452,0h19.5v47.2c4.9-3.7,12.2-6.5,20.3-6.5c22.7,0,36.5,16.3,36.5,39.1c0,25.2-16.6,41.5-43.8,41.5
		c-12.6,0-25.5-4.1-32.4-8.5V0z M471.5,66.3v32.6c4.1,2.8,8.5,4.1,13.8,4.1c12.2,0,21.9-8.1,21.9-22c0-14.7-8.9-22-19.9-22
		C480.4,59,474.7,62.7,471.5,66.3z"/>
	<path class="st0" d="M540.8,42.7h19.5v7.3c3.6-4.9,8.5-9,17.4-9c6.5,0,9.3,1.2,11.8,2.8l-6.9,18.3c-3.6-2-5.7-2.8-9.7-2.8
		c-6.9,0-10.5,3.7-12.6,8.1v51.7h-19.5V42.7z"/>
	<path class="st0" d="M597.6,48c6.5-4.1,17-7.3,27.2-7.3c22.7,0,30.4,11.4,30.4,31.7v46.8h-16.6v-9c-4.1,5.7-12.2,9.8-22.7,9.8
		c-13.8,0-23.9-8.5-23.9-23.6c0-16.7,12.6-24.8,28-24.8c6.9,0,13.8,2,17.4,4.9c0.4-12.6-2.8-19.9-14.2-19.9
		c-8.9,0-14.6,2.8-19.9,5.3L597.6,48z M636.9,96.9v-7.7c-3.2-2.4-7.7-3.7-13.4-3.7c-6.5,0-12.2,3.3-12.2,9.4c0,5.7,4.9,9,10.9,9
		C630.4,103.8,634.5,100.1,636.9,96.9z"/>
	<path class="st0" d="M693.7,42.7h-19.5v76.9h19.5V42.7z"/>
	<path class="st0" d="M713.9,42.7h19.5v7.7c4.5-4.9,12.6-9,21.9-9c18.7,0,31.6,9,31.6,33v45.2h-19.5V77.7c0-12.2-6.5-17.9-17-17.9
		c-6.5,0-12.2,2.8-16.6,7.3v52.5h-19.5V42.7H713.9z"/>
	<path class="st0" d="M801.1,42.7h66.1V57l-41,44h40.5v18.3h-68.1V105L840,61h-38.9V42.7z"/>
</g>
<path class="st1" d="M79.1,41.5h32.3c22.6,0,35,11.7,35,28.6S133.5,99,110.5,99H97.7v19.9H79.2L79.1,41.5L79.1,41.5z M153.1,80
	c0-23.9,19.7-40,42-40c22.3,0,42,15.4,42,40c0,24.6-19.3,40-42,40C172.3,120,153.1,103.9,153.1,80z M195.1,103.5
	c-14.1,0-23.1-10.6-23.1-23.4c0-12.8,8.8-23.4,23.1-23.4c14.2,0,23.1,10.5,23.1,23.4C218.2,93,209.2,103.5,195.1,103.5z M268.1,75.5
	l29-34h21.7l-32.5,36.7l33.6,40.7h-23.5l-28.3-35.3v35.3h-18.5V41.5h18.5V75.5z M18.5,75.5l29-34h21.7L36.7,78.2l33.6,40.7H46.9
	L18.5,83.6v35.3H0V41.5h18.5V75.5z M97.6,57.2v26.5h11.1c13.3,0,18.7-5.2,18.7-13.5c0-6.6-4.4-13-17.6-13L97.6,57.2L97.6,57.2z"/>
<path class="st2" d="M384,84l-24,24l-5.7-5.7l24-24L356,56l5.7-5.7L384,72.7l22.3-22.3L412,56l-22.3,22.3l24,24L408,108L384,84z"/>
</svg>
